<svg width="24" height="24" viewBox="0 0 24 24" fill="none" xmlns="http://www.w3.org/2000/svg">
<g clip-path="url(#clip0_35_14128)">
<path d="M19 3C20.5977 3 21.9037 4.24892 21.9949 5.82373L22 6V16C22 17.5977 20.7511 18.9037 19.1763 18.9949L19 19H15.3028L12.6934 20.7396C12.3155 20.9915 11.8346 21.0167 11.4361 20.8152L11.3066 20.7396L8.69722 19H5C3.40232 19 2.09634 17.7511 2.00509 16.1763L2 16V6C2 4.40232 3.24892 3.09634 4.82373 3.00509L5 3H19ZM19 5H5C4.48717 5 4.06449 5.38604 4.00673 5.88338L4 6V16C4 16.5128 4.38604 16.9355 4.88338 16.9933L5 17H8.69722C9.03566 17 9.36762 17.0859 9.66244 17.2483L9.80662 17.3359L12 18.7981L14.1934 17.3359C14.475 17.1482 14.7988 17.0355 15.1342 17.0071L15.3028 17H19C19.5128 17 19.9355 16.614 19.9933 16.1166L20 16V6C20 5.48717 19.614 5.06449 19.1166 5.00673L19 5ZM8.5 10C9.32843 10 10 10.6716 10 11.5C10 12.3284 9.32843 13 8.5 13C7.67157 13 7 12.3284 7 11.5C7 10.6716 7.67157 10 8.5 10ZM15.5 10C16.3284 10 17 10.6716 17 11.5C17 12.3284 16.3284 13 15.5 13C14.6716 13 14 12.3284 14 11.5C14 10.6716 14.6716 10 15.5 10Z" fill="white"/>
</g>
<defs>
<clipPath id="clip0_35_14128">
<rect width="24" height="24" fill="white"/>
</clipPath>
</defs>
</svg>
