<svg width="24" height="24" viewBox="0 0 24 24" fill="none" xmlns="http://www.w3.org/2000/svg">
<g clip-path="url(#clip0_35_12629)">
<path d="M12 2C17.5228 2 22 6.47715 22 12C22 15.1622 20.5323 17.9815 18.2409 19.814L18.001 20H20C20.5523 20 21 20.4477 21 21C21 21.5128 20.614 21.9355 20.1166 21.9933L20 22H12C6.47715 22 2 17.5228 2 12C2 6.47715 6.47715 2 12 2ZM12 4C7.58172 4 4 7.58172 4 12C4 16.4183 7.58172 20 12 20C16.4183 20 20 16.4183 20 12C20 7.58172 16.4183 4 12 4ZM12 14C13.1046 14 14 14.8954 14 16C14 17.1046 13.1046 18 12 18C10.8954 18 10 17.1046 10 16C10 14.8954 10.8954 14 12 14ZM8 10C9.10457 10 10 10.8954 10 12C10 13.1046 9.10457 14 8 14C6.89543 14 6 13.1046 6 12C6 10.8954 6.89543 10 8 10ZM16 10C17.1046 10 18 10.8954 18 12C18 13.1046 17.1046 14 16 14C14.8954 14 14 13.1046 14 12C14 10.8954 14.8954 10 16 10ZM12 6C13.1046 6 14 6.89543 14 8C14 9.10457 13.1046 10 12 10C10.8954 10 10 9.10457 10 8C10 6.89543 10.8954 6 12 6Z" fill="white"/>
</g>
<defs>
<clipPath id="clip0_35_12629">
<rect width="24" height="24" fill="white"/>
</clipPath>
</defs>
</svg>
