<svg width="24" height="24" viewBox="0 0 24 24" fill="none" xmlns="http://www.w3.org/2000/svg">
<g clip-path="url(#clip0_35_12683)">
<path d="M9 3C9.55228 3 10 3.44772 10 4V20C10 20.5523 9.55228 21 9 21H7C6.44772 21 6 20.5523 6 20V4C6 3.44772 6.44772 3 7 3H9ZM17 3C17.5523 3 18 3.44772 18 4V20C18 20.5523 17.5523 21 17 21H15C14.4477 21 14 20.5523 14 20V4C14 3.44772 14.4477 3 15 3H17Z" fill="#ffffff"/>
</g>
<defs>
<clipPath id="clip0_35_12683">
<rect width="24" height="24" fill="white"/>
</clipPath>
</defs>
</svg>
