<svg width="24" height="24" viewBox="0 0 24 24" fill="none" xmlns="http://www.w3.org/2000/svg">
<g clip-path="url(#clip0_12028_55026)">
<path fill-rule="evenodd" clip-rule="evenodd" d="M5.6687 4.7602C5.78733 3.78066 6.8035 3.19556 7.70997 3.58327C8.77077 4.03698 11.1511 5.11564 14.1713 6.85936C17.1922 8.60348 19.3168 10.1258 20.2397 10.8174C21.0281 11.4082 21.0304 12.5803 20.2412 13.1729C19.3267 13.8596 17.2278 15.3637 14.1702 17.129C11.1116 18.8949 8.75895 19.9607 7.70758 20.4091C6.80085 20.7957 5.78738 20.2095 5.66894 19.232C5.5306 18.0902 5.27344 15.4973 5.27344 11.9951C5.27344 8.49494 5.5303 5.90305 5.6687 4.7602Z" fill="white"/>
</g>
<defs>
<clipPath id="clip0_12028_55026">
<rect width="24" height="24" fill="white"/>
</clipPath>
</defs>
</svg>
