<svg width="20" height="20" viewBox="0 0 20 20" fill="none" xmlns="http://www.w3.org/2000/svg">
<path fill-rule="evenodd" clip-rule="evenodd" d="M10 0C15.5228 0 20 4.47715 20 10C20 15.5228 15.5228 20 10 20C4.47715 20 0 15.5228 0 10C0 4.47715 4.47715 0 10 0ZM11 3V2.06189C12.7894 2.28503 14.3953 3.09914 15.6162 4.30275C14.836 4.6969 11.5087 6.37916 10.8582 6.72746C9.89501 7.24323 8.7361 7.72832 7.94932 8.5151C6.97764 9.48678 6.86 11.1027 7.87861 12.1213C8.89721 13.1399 10.5132 13.0223 11.4849 12.0506C12.2716 11.2639 12.7567 10.1049 13.2725 9.14175C13.3874 8.92722 15.2752 5.21321 15.6969 4.38349C16.9007 5.60441 17.7149 7.21042 17.9381 9H17C16.4477 9 16 9.44771 16 10C16 10.5523 16.4477 11 17 11H17.9381C17.446 14.9463 14.0796 18 10 18C5.92038 18 2.55399 14.9463 2.06189 11H3C3.55228 11 4 10.5523 4 10C4 9.44771 3.55228 9 3 9H2.06189C2.51314 5.38128 5.38128 2.51314 9 2.06189V3C9 3.55228 9.44771 4 10 4C10.5523 4 11 3.55228 11 3ZM9.29282 10.7071C9.13985 10.5542 9.08554 10.2073 9.36353 9.92931L9.3625 9.93036C9.74539 9.57671 10.2532 9.31338 10.7357 9.06313C10.8816 8.98747 11.0252 8.91301 11.1623 8.83761C11.0869 8.97474 11.0125 9.11834 10.9368 9.26424C10.6866 9.74679 10.4232 10.2546 10.0696 10.6375L10.0706 10.6364C9.79264 10.9144 9.44579 10.8601 9.29282 10.7071Z" fill="white"/>
</svg>
