<svg width="24" height="24" viewBox="0 0 24 24" fill="none" xmlns="http://www.w3.org/2000/svg">
<g clip-path="url(#clip0_12028_55027)">
<path d="M13.2606 3.29912C13.957 2.80169 14.9126 3.25623 14.9944 4.07969L15 4.19422V19.8056C15 20.6614 14.0747 21.1747 13.3571 20.7627L13.2606 20.7007L6.67953 15.9999H4C2.94564 15.9999 2.08183 15.184 2.00549 14.1492L2 13.9999V9.99991C2 8.94555 2.81588 8.08174 3.85074 8.00539L4 7.99991H6.67953L13.2606 3.29912ZM19.6669 6.78255C21.0974 8.06287 22 9.92664 22 11.9999C22 14.0732 21.0974 15.9369 19.6669 17.2172C19.2554 17.5856 18.6232 17.5506 18.2549 17.139C17.8865 16.7275 17.9216 16.0953 18.3331 15.727C19.3576 14.81 20 13.4806 20 11.9999C20 10.5192 19.3576 9.18979 18.3331 8.27282C17.9216 7.9045 17.8865 7.2723 18.2549 6.86078C18.6232 6.44925 19.2554 6.41423 19.6669 6.78255ZM17.6669 9.01867C18.4837 9.74967 19 10.8151 19 11.9999C19 13.1847 18.4837 14.2502 17.6669 14.9812C17.2554 15.3495 16.6232 15.3145 16.2549 14.9029C15.9148 14.5231 15.9186 13.9552 16.2448 13.5804L16.3331 13.4909C16.7439 13.1232 17 12.5921 17 11.9999C17 11.4669 16.7926 10.9834 16.4516 10.624L16.3331 10.5089C15.9216 10.1406 15.8865 9.50842 16.2549 9.09689C16.6232 8.68536 17.2554 8.65034 17.6669 9.01867Z" fill="white"/>
</g>
<defs>
<clipPath id="clip0_12028_55027">
<rect width="24" height="24" fill="white"/>
</clipPath>
</defs>
</svg>
