<svg width="24" height="24" viewBox="0 0 24 24" fill="none" xmlns="http://www.w3.org/2000/svg">
<g clip-path="url(#clip0_35_15570)">
<path d="M13.2606 3.29961C13.957 2.80218 14.9126 3.25672 14.9944 4.08019L15 4.19472V19.8061C15 20.6619 14.0747 21.1753 13.3571 20.7632L13.2606 20.7012L6.67953 16.0004H4C2.94564 16.0004 2.08183 15.1845 2.00549 14.1496L2 14.0004V10.0004C2 8.94603 2.81588 8.08223 3.85074 8.00588L4 8.0004H6.67953L13.2606 3.29961ZM17.5858 9.17199L19 10.5862L20.4142 9.172C20.8047 8.78147 21.4379 8.78147 21.8284 9.172C22.2189 9.56252 22.2189 10.1957 21.8284 10.5862L20.4142 12.0004L21.8284 13.4147C22.2189 13.8052 22.2189 14.4383 21.8284 14.8289C21.4379 15.2194 20.8047 15.2194 20.4142 14.8289L19 13.4147L17.5858 14.8289C17.1952 15.2194 16.5621 15.2194 16.1716 14.8289C15.781 14.4384 15.781 13.8052 16.1716 13.4147L17.5858 12.0004L16.1716 10.5862C15.781 10.1957 15.781 9.56251 16.1716 9.17199C16.5621 8.78146 17.1952 8.78146 17.5858 9.17199Z" fill="#ffffff"/>
</g>
<defs>
<clipPath id="clip0_35_15570">
<rect width="24" height="24" fill="white"/>
</clipPath>
</defs>
</svg>
